# Blender 4.5.2 LTS
# www.blender.org
mtllib dado_Animales.mtl
g Cube_Mesh
v -1.000000 1.000000 1.000000
v -1.000000 -1.000000 1.000000
v -1.000000 1.000000 -1.000000
v -1.000000 -1.000000 -1.000000
v 1.000000 1.000000 1.000000
v 1.000000 -1.000000 1.000000
v 1.000000 1.000000 -1.000000
v 1.000000 -1.000000 -1.000000
vn -0.0000 1.0000 -0.0000
vn -0.0000 -0.0000 -1.0000
vn 1.0000 -0.0000 -0.0000
vn -0.0000 -1.0000 -0.0000
vn -1.0000 -0.0000 -0.0000
vn -0.0000 -0.0000 1.0000
vt 0.265045 0.663684
vt 0.488862 0.348035
vt 0.490047 0.661403
vt 0.746333 0.984688
vt 0.511480 0.679375
vt 0.747546 0.681827
vt 0.997229 0.657701
vt 0.760583 0.350111
vt 0.996949 0.347854
vt 0.248127 0.371755
vt 0.001873 0.620432
vt 0.003219 0.370436
vt 0.736409 0.658029
vt 0.509685 0.349784
vt 0.735991 0.348903
vt 0.748444 0.330293
vt 0.513274 0.005645
vt 0.748042 0.007266
vt 0.263859 0.350315
vt 0.510267 0.982235
vt 0.760863 0.659958
vt 0.246781 0.621752
vt 0.510103 0.658909
vt 0.513677 0.328672
s 0
g off
g Cube_Material
usemtl Material
f 5/1/1 3/2/1 1/3/1
f 3/4/2 8/5/2 4/6/2
f 7/7/3 6/8/3 8/9/3
f 2/10/4 8/11/4 6/12/4
f 1/13/5 4/14/5 2/15/5
f 5/16/6 2/17/6 6/18/6
f 5/1/1 7/19/1 3/2/1
f 3/4/2 7/20/2 8/5/2
f 7/7/3 5/21/3 6/8/3
f 2/10/4 4/22/4 8/11/4
f 1/13/5 3/23/5 4/14/5
f 5/16/6 1/24/6 2/17/6
